
<svg xmlns="http://www.w3.org/2000/svg" version="1.1" xmlns:xlink="http://www.w3.org/1999/xlink" preserveAspectRatio="none" x="0px" y="0px" width="256px" height="256px" viewBox="0 0 256 256">
<defs>
<radialGradient id="Gradient_1" gradientUnits="userSpaceOnUse" cx="0" cy="0" r="149.8" fx="0" fy="0" gradientTransform="matrix( 1, 0, 0, 1, 23.2,-31.5) " spreadMethod="pad">
<stop  offset="0%" stop-color="#000000" stop-opacity="0"/>

<stop  offset="53.72549019607843%" stop-color="#000000" stop-opacity="0.11372549019607843"/>

<stop  offset="100%" stop-color="#000000" stop-opacity="0.4980392156862745"/>
</radialGradient>

<g id="Layer0_0_FILL">
<path fill="#2394E0" stroke="none" d="
M 18.25 194.55
L 18.55 187.85 22.2 182.85
Q 24.55 179.1 24.55 177.3
L 24.45 170.15 3.85 160.1
Q 8.3 178.45 18.25 194.55
M 165.25 89.05
L 166.95 88 175.25 97.5 179.5 96.2 183.55 100.9 194.55 100.7 201.8 110.5 204.9 108.15 210.25 138.45 215.35 135.15 215.35 123.2 230.95 107.2 235.65 121.6 239.55 120.3 241.6 139.85 242.55 139.85 242.55 129.15 249.7 137.6 252.15 134.7
Q 254.6 131.95 254.6 130.65 254.6 126.5 252.25 122.55 250.05 118.3 250.05 117.35 250.05 114.9 250.55 113.4 251.2 111.7 251.4 109.75
L 254.95 110.1
Q 249.5 68.7 218.45 37.65 194.65 13.65 164.5 5
L 150.85 8.95 150.85 4.6 147.85 4.6 147.5 8.75 141 10.45 140.05 13.55 131.1 6.3 143.25 7.45
Q 141.65 5.35 134.5 2.55 128.1 0.3 124.6 0.1 120.95 0.1 117.45 0.45 113.9 1.6 106.25 6.85 93.75 15.8 91.95 16.45
L 93.55 24.3 102.3 22.6 103.8 29.1 98.15 25.5 96.45 28.6
Q 96.45 30.3 96.95 31.05
L 97.6 33.5 75.75 43.5 75.75 46.4 77.25 45.65 81.5 55.45 68.05 55.45 68.05 70.7
Q 71.25 70.95 72.55 71.45 73.6 72.1 75.75 72.1 79.7 72.1 81.5 69.95 82.9 68.35 83.75 63.8
L 91 56.85 98.35 53.95 110.4 66.75 105.7 69.25
Q 109 73.8 110.4 69.75 112 63.45 112.3 62.4
L 102.85 52.35 104.45 50.9 115.5 58.9 120.65 72.1 122.75 71.25
Q 123.65 70.5 123.65 69.25
L 123.4 66.55
Q 122.55 64.1 122.35 63.25
L 127.45 62.1 132.8 73.5 144.65 72.1
Q 144.65 78.5 143.9 81.05 142.6 85.65 138.65 85.65
L 135.7 85.65
Q 131 85.65 126.85 83.95 121.5 81.9 118.95 81.05
L 117.55 87.55 102.7 81.05 102.7 70.7 89.05 70.7
Q 87.05 70.7 84.35 72.95 81.5 75.2 77.25 75.2
L 73.4 75.75 66.55 82.65 66.55 90.25
Q 62.4 92.8 58.9 98.35 54.6 104.45 54.6 109.55
L 54.6 127.8
Q 54.6 130.15 60.15 138.25 66.15 147.3 69.65 147.3
L 75.75 147.3
Q 79.05 147.3 81.6 145.9 84.35 144.2 87.7 144.2
L 89.3 144.2
Q 92.05 144.2 92.8 145.4
L 93.65 148.8 99.85 148.8 99.85 160.95 103.45 168.65
Q 107.3 176.1 107.3 180.25 107.3 184.45 105.7 188.35 104.3 192.55 104.3 195.5 104.3 198.6 107.95 210.75 111.8 222.95 111.8 228.5
L 120.65 228.5
Q 126.85 228.5 131.95 223.25 136.95 218.35 137.4 212.25
L 141.75 210.55 140.25 203.1
Q 141.45 201.15 147.95 195.85 152.65 191.9 152.45 189.45
L 149.65 169.8
Q 156.6 160.45 162.25 152.3 170.05 140.05 170.45 132.35 167.35 132.6 165.65 133.1 164.35 133.65 161.4 133.65 159.55 133.65 159.15 132.35
L 158.3 129.15
Q 167.35 127.15 174.95 120.95 183.9 113.7 183.9 105.3 183.9 103.7 182.5 103.15 180.6 102.6 179.3 99.1
L 176.45 99.1 176.45 102.3 170.45 102.3 165.25 89.05 Z"/>

<path fill="#6D6D6D" fill-opacity="0.996078431372549" stroke="none" d="
M 166.95 88
L 165.25 89.05 170.45 102.3 176.45 102.3 176.45 99.1 179.3 99.1
Q 180.6 102.6 182.5 103.15 183.9 103.7 183.9 105.3 183.9 113.7 174.95 120.95 167.35 127.15 158.3 129.15
L 159.15 132.35
Q 159.55 133.65 161.4 133.65 164.35 133.65 165.65 133.1 167.35 132.6 170.45 132.35 170.05 140.05 162.25 152.3 156.6 160.45 149.65 169.8
L 152.45 189.45
Q 152.65 191.9 147.95 195.85 141.45 201.15 140.25 203.1
L 141.75 210.55 137.4 212.25
Q 136.95 218.35 131.95 223.25 126.85 228.5 120.65 228.5
L 111.8 228.5
Q 111.8 222.95 107.95 210.75 104.3 198.6 104.3 195.5 104.3 192.55 105.7 188.35 107.3 184.45 107.3 180.25 107.3 176.1 103.45 168.65
L 99.85 160.95 99.85 148.8 93.65 148.8 92.8 145.4
Q 92.05 144.2 89.3 144.2
L 87.7 144.2
Q 84.35 144.2 81.6 145.9 79.05 147.3 75.75 147.3
L 69.65 147.3
Q 66.15 147.3 60.15 138.25 54.6 130.15 54.6 127.8
L 54.6 109.55
Q 54.6 104.45 58.9 98.35 62.4 92.8 66.55 90.25
L 66.55 82.65 73.4 75.75 77.25 75.2
Q 81.5 75.2 84.35 72.95 87.05 70.7 89.05 70.7
L 102.7 70.7 102.7 81.05 117.55 87.55 118.95 81.05
Q 121.5 81.9 126.85 83.95 131 85.65 135.7 85.65
L 138.65 85.65
Q 142.6 85.65 143.9 81.05 144.65 78.5 144.65 72.1
L 132.8 73.5 127.45 62.1 122.35 63.25
Q 122.55 64.1 123.4 66.55
L 123.65 69.25
Q 123.65 70.5 122.75 71.25
L 120.65 72.1 115.5 58.9 104.45 50.9 102.85 52.35 112.3 62.4
Q 112 63.45 110.4 69.75 109 73.8 105.7 69.25
L 110.4 66.75 98.35 53.95 91 56.85 83.75 63.8
Q 82.9 68.35 81.5 69.95 79.7 72.1 75.75 72.1 73.6 72.1 72.55 71.45 71.25 70.95 68.05 70.7
L 68.05 55.45 81.5 55.45 77.25 45.65 75.75 46.4 75.75 43.5 97.6 33.5 96.95 31.05
Q 96.45 30.3 96.45 28.6
L 98.15 25.5 103.8 29.1 102.3 22.6 93.55 24.3 91.95 16.45
Q 93.75 15.8 106.25 6.85 113.9 1.6 117.45 0.45 71.15 3.85 37.55 37.65 0 75.1 0 128 0 144.85 3.85 160.1
L 24.45 170.15 24.55 177.3
Q 24.55 179.1 22.2 182.85
L 18.55 187.85 18.25 194.55
Q 26.15 207.25 37.55 218.55 75 256 128 256 181 256 218.45 218.55 256 181 256 128 256 118.85 254.95 110.1
L 251.4 109.75
Q 251.2 111.7 250.55 113.4 250.05 114.9 250.05 117.35 250.05 118.3 252.25 122.55 254.6 126.5 254.6 130.65 254.6 131.95 252.15 134.7
L 249.7 137.6 242.55 129.15 242.55 139.85 241.6 139.85 239.55 120.3 235.65 121.6 230.95 107.2 215.35 123.2 215.35 135.15 210.25 138.45 204.9 108.15 201.8 110.5 194.55 100.7 183.55 100.9 179.5 96.2 175.25 97.5 166.95 88
M 150.85 4.6
L 150.85 8.95 164.5 5
Q 147.3 0 128 0 126.3 0 124.6 0.1 128.1 0.3 134.5 2.55 141.65 5.35 143.25 7.45
L 131.1 6.3 140.05 13.55 141 10.45 147.5 8.75 147.85 4.6 150.85 4.6 Z"/>
</g>

<g id="Layer0_1_FILL">
<path fill="#C1C1C1" stroke="none" d="
M -103.45 49.3
L -103.55 42.15 -124.15 32.1
Q -119.7 50.45 -109.75 66.55
L -109.45 59.85 -105.8 54.85
Q -103.45 51.1 -103.45 49.3
M 13 -117.55
L 12.05 -114.45 3.1 -121.7 15.25 -120.55
Q 13.65 -122.65 6.5 -125.45 0.1 -127.7 -3.4 -127.9 -7.05 -127.9 -10.55 -127.55 -14.1 -126.4 -21.75 -121.15 -34.25 -112.2 -36.05 -111.55
L -34.45 -103.7 -25.7 -105.4 -24.2 -98.9 -29.85 -102.5 -31.55 -99.4
Q -31.55 -97.7 -31.05 -96.95
L -30.4 -94.5 -52.25 -84.5 -52.25 -81.6 -50.75 -82.35 -46.5 -72.55 -59.95 -72.55 -59.95 -57.3
Q -56.75 -57.05 -55.45 -56.55 -54.4 -55.9 -52.25 -55.9 -48.3 -55.9 -46.5 -58.05 -45.1 -59.65 -44.25 -64.2
L -37 -71.15 -29.65 -74.05 -17.6 -61.25 -22.3 -58.75
Q -19 -54.2 -17.6 -58.25 -16 -64.55 -15.7 -65.6
L -25.15 -75.65 -23.55 -77.1 -12.5 -69.1 -7.35 -55.9 -5.25 -56.75
Q -4.35 -57.5 -4.35 -58.75
L -4.6 -61.45
Q -5.45 -63.9 -5.65 -64.75
L -0.55 -65.9 4.8 -54.5 16.65 -55.9
Q 16.65 -49.5 15.9 -46.95 14.6 -42.35 10.65 -42.35
L 7.7 -42.35
Q 3 -42.35 -1.15 -44.05 -6.5 -46.1 -9.05 -46.95
L -10.45 -40.45 -25.3 -46.95 -25.3 -57.3 -38.95 -57.3
Q -40.95 -57.3 -43.65 -55.05 -46.5 -52.8 -50.75 -52.8
L -54.6 -52.25 -61.45 -45.35 -61.45 -37.75
Q -65.6 -35.2 -69.1 -29.65 -73.4 -23.55 -73.4 -18.45
L -73.4 -0.2
Q -73.4 2.15 -67.85 10.25 -61.85 19.3 -58.35 19.3
L -52.25 19.3
Q -48.95 19.3 -46.4 17.9 -43.65 16.2 -40.3 16.2
L -38.7 16.2
Q -35.95 16.2 -35.2 17.4
L -34.35 20.8 -28.15 20.8 -28.15 32.95 -24.55 40.65
Q -20.7 48.1 -20.7 52.25 -20.7 56.45 -22.3 60.35 -23.7 64.55 -23.7 67.5 -23.7 70.6 -20.05 82.75 -16.2 94.95 -16.2 100.5
L -7.35 100.5
Q -1.15 100.5 3.95 95.25 8.95 90.35 9.4 84.25
L 13.75 82.55 12.25 75.1
Q 13.45 73.15 19.95 67.85 24.65 63.9 24.45 61.45
L 21.65 41.8
Q 28.6 32.45 34.25 24.3 42.05 12.05 42.45 4.35 39.35 4.6 37.65 5.1 36.35 5.65 33.4 5.65 31.55 5.65 31.15 4.35
L 30.3 1.15
Q 39.35 -0.85 46.95 -7.05 55.9 -14.3 55.9 -22.7 55.9 -24.3 54.5 -24.85 52.6 -25.4 51.3 -28.9
L 48.45 -28.9 48.45 -25.7 42.45 -25.7 37.25 -38.95 38.95 -40 47.25 -30.5 51.5 -31.8 55.55 -27.1 66.55 -27.3 73.8 -17.5 76.9 -19.85 82.25 10.45 87.35 7.15 87.35 -4.8 102.95 -20.8 107.65 -6.4 111.55 -7.7 113.6 11.85 114.55 11.85 114.55 1.15 121.7 9.6 124.15 6.7
Q 126.6 3.95 126.6 2.65 126.6 -1.5 124.25 -5.45 122.05 -9.7 122.05 -10.65 122.05 -13.1 122.55 -14.6 123.2 -16.3 123.4 -18.25
L 126.95 -17.9
Q 121.5 -59.3 90.45 -90.35 66.65 -114.35 36.5 -123
L 22.85 -119.05 22.85 -123.4 19.85 -123.4 19.5 -119.25 13 -117.55 Z"/>
</g>

<g id="Layer0_2_FILL">
<path fill="url(#Gradient_1)" stroke="none" d="
M 36.5 -123
Q 19.3 -128 0 -128 -1.7 -128 -3.4 -127.9 -7.05 -127.9 -10.55 -127.55 -56.85 -124.15 -90.45 -90.35 -128 -52.9 -128 0 -128 16.85 -124.15 32.1 -119.7 50.45 -109.75 66.55 -101.85 79.25 -90.45 90.55 -53 128 0 128 53 128 90.45 90.55 128 53 128 0 128 -9.15 126.95 -17.9 121.5 -59.3 90.45 -90.35 66.65 -114.35 36.5 -123 Z"/>
</g>
</defs>

<g transform="matrix( 1, 0, 0, 1, 0,0) ">
<use xlink:href="#Layer0_0_FILL"/>
</g>

<g transform="matrix( 1, 0, 0, 1, 128,128) ">
<use xlink:href="#Layer0_1_FILL"/>
</g>

<g transform="matrix( 1, 0, 0, 1, 128,128) ">
<use xlink:href="#Layer0_2_FILL"/>
</g>
</svg>
