
<svg xmlns="http://www.w3.org/2000/svg" version="1.1" xmlns:xlink="http://www.w3.org/1999/xlink" preserveAspectRatio="none" x="0px" y="0px" width="256px" height="256px" viewBox="0 0 256 256">
<defs>
<radialGradient id="Gradient_1" gradientUnits="userSpaceOnUse" cx="0" cy="0" r="149.8" fx="0" fy="0" gradientTransform="matrix( 1, 0, 0, 1, 151.2,96.5) " spreadMethod="pad">
<stop  offset="0%" stop-color="#000000" stop-opacity="0"/>

<stop  offset="53.72549019607843%" stop-color="#000000" stop-opacity="0.11372549019607843"/>

<stop  offset="100%" stop-color="#000000" stop-opacity="0.4980392156862745"/>
</radialGradient>

<g id="Layer0_0_FILL">
<path fill="#6D6D6D" stroke="none" d="
M 3.85 160.1
Q 8.3 178.45 18.25 194.55
L 18.55 187.85 22.2 182.85
Q 24.55 179.1 24.55 177.3
L 24.45 170.15 3.85 160.1
M 175.25 97.5
L 179.5 96.2 183.55 100.9 194.55 100.7 201.8 110.5 204.9 108.15 210.25 138.45 215.35 135.15 215.35 123.2 230.95 107.2 235.65 121.6 239.55 120.3 241.6 139.85 242.55 139.85 242.55 129.15 249.7 137.6 252.15 134.7
Q 254.6 131.95 254.6 130.65 254.6 126.5 252.25 122.55 250.05 118.3 250.05 117.35 250.05 114.9 250.55 113.4 251.2 111.7 251.4 109.75
L 254.95 110.1
Q 249.5 68.7 218.45 37.65 194.65 13.65 164.5 5
L 150.85 8.95 150.85 4.6 147.85 4.6 147.5 8.75 141 10.45 140.05 13.55 131.1 6.3 143.25 7.45
Q 141.65 5.35 134.5 2.55 128.1 0.3 124.6 0.1 120.95 0.1 117.45 0.45 113.9 1.6 106.25 6.85 93.75 15.8 91.95 16.45
L 93.55 24.3 102.3 22.6 103.8 29.1 98.15 25.5 96.45 28.6
Q 96.45 30.3 96.95 31.05
L 97.6 33.5 75.75 43.5 75.75 46.4 77.25 45.65 81.5 55.45 68.05 55.45 68.05 70.7
Q 71.25 70.95 72.55 71.45 73.6 72.1 75.75 72.1 79.7 72.1 81.5 69.95 82.9 68.35 83.75 63.8
L 91 56.85 98.35 53.95 110.4 66.75 105.7 69.25
Q 109 73.8 110.4 69.75 112 63.45 112.3 62.4
L 102.85 52.35 104.45 50.9 115.5 58.9 120.65 72.1 122.75 71.25
Q 123.65 70.5 123.65 69.25
L 123.4 66.55
Q 122.55 64.1 122.35 63.25
L 127.45 62.1 132.8 73.5 144.65 72.1
Q 144.65 78.5 143.9 81.05 142.6 85.65 138.65 85.65
L 135.7 85.65
Q 131 85.65 126.85 83.95 121.5 81.9 118.95 81.05
L 117.55 87.55 102.7 81.05 102.7 70.7 89.05 70.7
Q 87.05 70.7 84.35 72.95 81.5 75.2 77.25 75.2
L 73.4 75.75 66.55 82.65 66.55 90.25
Q 62.4 92.8 58.9 98.35 54.6 104.45 54.6 109.55
L 54.6 127.8
Q 54.6 130.15 60.15 138.25 66.15 147.3 69.65 147.3
L 75.75 147.3
Q 79.05 147.3 81.6 145.9 84.35 144.2 87.7 144.2
L 89.3 144.2
Q 92.05 144.2 92.8 145.4
L 93.65 148.8 99.85 148.8 99.85 160.95 103.45 168.65
Q 107.3 176.1 107.3 180.25 107.3 184.45 105.7 188.35 104.3 192.55 104.3 195.5 104.3 198.6 107.95 210.75 109.321875 215.097265625 110.2 218.6 111.8 224.927734375 111.8 228.5
L 120.65 228.5
Q 126.85 228.5 131.95 223.25 134.1986328125 221.046484375 135.5 218.6 137.15234375 215.6068359375 137.4 212.25
L 141.75 210.55 140.25 203.1
Q 141.45 201.15 147.95 195.85 152.65 191.9 152.45 189.45
L 149.65 169.8
Q 156.6 160.45 162.25 152.3 170.05 140.05 170.45 132.35 167.35 132.6 165.65 133.1 164.35 133.65 161.4 133.65 159.55 133.65 159.15 132.35
L 158.3 129.15
Q 167.35 127.15 174.95 120.95 183.9 113.7 183.9 105.3 183.9 103.7 182.5 103.15 180.6 102.6 179.3 99.1
L 176.45 99.1 176.45 102.3 170.45 102.3 165.25 89.05 166.95 88 175.25 97.5 Z"/>

<path fill="#6D6D6D" fill-opacity="0.996078431372549" stroke="none" d="
M 147.5 8.75
L 147.85 4.6 150.85 4.6 150.85 8.95 164.5 5
Q 147.3 0 128 0 126.3 0 124.6 0.1 128.1 0.3 134.5 2.55 141.65 5.35 143.25 7.45
L 131.1 6.3 140.05 13.55 141 10.45 147.5 8.75
M 179.5 96.2
L 175.25 97.5 166.95 88 165.25 89.05 170.45 102.3 176.45 102.3 176.45 99.1 179.3 99.1
Q 180.6 102.6 182.5 103.15 183.9 103.7 183.9 105.3 183.9 113.7 174.95 120.95 167.35 127.15 158.3 129.15
L 159.15 132.35
Q 159.55 133.65 161.4 133.65 164.35 133.65 165.65 133.1 167.35 132.6 170.45 132.35 170.05 140.05 162.25 152.3 156.6 160.45 149.65 169.8
L 152.45 189.45
Q 152.65 191.9 147.95 195.85 141.45 201.15 140.25 203.1
L 141.75 210.55 137.4 212.25
Q 137.15234375 215.6068359375 135.5 218.6 134.1986328125 221.046484375 131.95 223.25 126.85 228.5 120.65 228.5
L 111.8 228.5
Q 111.8 224.927734375 110.2 218.6 109.321875 215.097265625 107.95 210.75 104.3 198.6 104.3 195.5 104.3 192.55 105.7 188.35 107.3 184.45 107.3 180.25 107.3 176.1 103.45 168.65
L 99.85 160.95 99.85 148.8 93.65 148.8 92.8 145.4
Q 92.05 144.2 89.3 144.2
L 87.7 144.2
Q 84.35 144.2 81.6 145.9 79.05 147.3 75.75 147.3
L 69.65 147.3
Q 66.15 147.3 60.15 138.25 54.6 130.15 54.6 127.8
L 54.6 109.55
Q 54.6 104.45 58.9 98.35 62.4 92.8 66.55 90.25
L 66.55 82.65 73.4 75.75 77.25 75.2
Q 81.5 75.2 84.35 72.95 87.05 70.7 89.05 70.7
L 102.7 70.7 102.7 81.05 117.55 87.55 118.95 81.05
Q 121.5 81.9 126.85 83.95 131 85.65 135.7 85.65
L 138.65 85.65
Q 142.6 85.65 143.9 81.05 144.65 78.5 144.65 72.1
L 132.8 73.5 127.45 62.1 122.35 63.25
Q 122.55 64.1 123.4 66.55
L 123.65 69.25
Q 123.65 70.5 122.75 71.25
L 120.65 72.1 115.5 58.9 104.45 50.9 102.85 52.35 112.3 62.4
Q 112 63.45 110.4 69.75 109 73.8 105.7 69.25
L 110.4 66.75 98.35 53.95 91 56.85 83.75 63.8
Q 82.9 68.35 81.5 69.95 79.7 72.1 75.75 72.1 73.6 72.1 72.55 71.45 71.25 70.95 68.05 70.7
L 68.05 55.45 81.5 55.45 77.25 45.65 75.75 46.4 75.75 43.5 97.6 33.5 96.95 31.05
Q 96.45 30.3 96.45 28.6
L 98.15 25.5 103.8 29.1 102.3 22.6 93.55 24.3 91.95 16.45
Q 93.75 15.8 106.25 6.85 113.9 1.6 117.45 0.45 71.15 3.85 37.55 37.65 32.9134765625 42.2740234375 28.85 47.1 0 81.6318359375 0 128 0 144.85 3.85 160.1
L 24.45 170.15 24.55 177.3
Q 24.55 179.1 22.2 182.85
L 18.55 187.85 18.25 194.55
Q 22.9345703125 202.080859375 28.85 209.1 32.9099609375 213.95078125 37.55 218.55 37.5751953125 218.5751953125 37.6 218.6 75.035546875 256 128 256 180.964453125 256 218.4 218.6 218.4248046875 218.5751953125 218.45 218.55 256 181 256 128 256 118.85 254.95 110.1
L 251.4 109.75
Q 251.2 111.7 250.55 113.4 250.05 114.9 250.05 117.35 250.05 118.3 252.25 122.55 254.6 126.5 254.6 130.65 254.6 131.95 252.15 134.7
L 249.7 137.6 242.55 129.15 242.55 139.85 241.6 139.85 239.55 120.3 235.65 121.6 230.95 107.2 215.35 123.2 215.35 135.15 210.25 138.45 204.9 108.15 201.8 110.5 194.55 100.7 183.55 100.9 179.5 96.2 Z"/>
</g>

<g id="Layer0_1_FILL">
<path fill="#C1C1C1" stroke="none" d="
M 22.2 182.85
Q 24.55 179.1 24.55 177.3
L 24.45 170.15 3.85 160.1
Q 8.3 178.45 18.25 194.55
L 18.55 187.85 22.2 182.85
M 166.95 88
L 175.25 97.5 179.5 96.2 183.55 100.9 194.55 100.7 201.8 110.5 204.9 108.15 210.25 138.45 215.35 135.15 215.35 123.2 230.95 107.2 235.65 121.6 239.55 120.3 241.6 139.85 242.55 139.85 242.55 129.15 249.7 137.6 252.15 134.7
Q 254.6 131.95 254.6 130.65 254.6 126.5 252.25 122.55 250.05 118.3 250.05 117.35 250.05 114.9 250.55 113.4 251.2 111.7 251.4 109.75
L 254.95 110.1
Q 249.5 68.7 218.45 37.65 194.65 13.65 164.5 5
L 150.85 8.95 150.85 4.6 147.85 4.6 147.5 8.75 141 10.45 140.05 13.55 131.1 6.3 143.25 7.45
Q 141.65 5.35 134.5 2.55 128.1 0.3 124.6 0.1 120.95 0.1 117.45 0.45 113.9 1.6 106.25 6.85 93.75 15.8 91.95 16.45
L 93.55 24.3 102.3 22.6 103.8 29.1 98.15 25.5 96.45 28.6
Q 96.45 30.3 96.95 31.05
L 97.6 33.5 75.75 43.5 75.75 46.4 77.25 45.65 81.5 55.45 68.05 55.45 68.05 70.7
Q 71.25 70.95 72.55 71.45 73.6 72.1 75.75 72.1 79.7 72.1 81.5 69.95 82.9 68.35 83.75 63.8
L 91 56.85 98.35 53.95 110.4 66.75 105.7 69.25
Q 109 73.8 110.4 69.75 112 63.45 112.3 62.4
L 102.85 52.35 104.45 50.9 115.5 58.9 120.65 72.1 122.75 71.25
Q 123.65 70.5 123.65 69.25
L 123.4 66.55
Q 122.55 64.1 122.35 63.25
L 127.45 62.1 132.8 73.5 144.65 72.1
Q 144.65 78.5 143.9 81.05 142.6 85.65 138.65 85.65
L 135.7 85.65
Q 131 85.65 126.85 83.95 121.5 81.9 118.95 81.05
L 117.55 87.55 102.7 81.05 102.7 70.7 89.05 70.7
Q 87.05 70.7 84.35 72.95 81.5 75.2 77.25 75.2
L 73.4 75.75 66.55 82.65 66.55 90.25
Q 62.4 92.8 58.9 98.35 54.6 104.45 54.6 109.55
L 54.6 127.8
Q 54.6 130.15 60.15 138.25 66.15 147.3 69.65 147.3
L 75.75 147.3
Q 79.05 147.3 81.6 145.9 84.35 144.2 87.7 144.2
L 89.3 144.2
Q 92.05 144.2 92.8 145.4
L 93.65 148.8 99.85 148.8 99.85 160.95 103.45 168.65
Q 107.3 176.1 107.3 180.25 107.3 184.45 105.7 188.35 104.3 192.55 104.3 195.5 104.3 198.6 107.95 210.75 111.8 222.95 111.8 228.5
L 120.65 228.5
Q 126.85 228.5 131.95 223.25 136.95 218.35 137.4 212.25
L 141.75 210.55 140.25 203.1
Q 141.45 201.15 147.95 195.85 152.65 191.9 152.45 189.45
L 149.65 169.8
Q 156.6 160.45 162.25 152.3 170.05 140.05 170.45 132.35 167.35 132.6 165.65 133.1 164.35 133.65 161.4 133.65 159.55 133.65 159.15 132.35
L 158.3 129.15
Q 167.35 127.15 174.95 120.95 183.9 113.7 183.9 105.3 183.9 103.7 182.5 103.15 180.6 102.6 179.3 99.1
L 176.45 99.1 176.45 102.3 170.45 102.3 165.25 89.05 166.95 88 Z"/>
</g>

<g id="Layer0_2_FILL">
<path fill="url(#Gradient_1)" stroke="none" d="
M 218.45 37.65
Q 194.65 13.65 164.5 5 147.3 0 128 0 126.3 0 124.6 0.1 120.95 0.1 117.45 0.45 71.15 3.85 37.55 37.65 0 75.1 0 128 0 144.85 3.85 160.1 8.3 178.45 18.25 194.55 26.15 207.25 37.55 218.55 75 256 128 256 181 256 218.45 218.55 256 181 256 128 256 118.85 254.95 110.1 249.5 68.7 218.45 37.65 Z"/>
</g>
</defs>

<g transform="matrix( 1, 0, 0, 1, 0,0) ">
<use xlink:href="#Layer0_0_FILL"/>
</g>

<g transform="matrix( 1, 0, 0, 1, 0,0) ">
<use xlink:href="#Layer0_1_FILL"/>
</g>

<g transform="matrix( 1, 0, 0, 1, 0,0) ">
<use xlink:href="#Layer0_2_FILL"/>
</g>
</svg>
