
<svg xmlns="http://www.w3.org/2000/svg" version="1.1" xmlns:xlink="http://www.w3.org/1999/xlink" preserveAspectRatio="none" x="0px" y="0px" width="80px" height="70px" viewBox="0 0 80 70">
<defs>
<g id="Layer0_0_FILL">
<path fill="#99785E" fill-opacity="0.9921568627450981" stroke="none" d="
M 49.65 41
Q 49.65 40.9 49.65 40.85 49.65 40.2 49.65 39.6 49.95 39.25 49.95 38.6 49.95 38.5 49.95 38.45 49.85 38.45 49.8 38.5 47.7 39.4 45.55 40.3 45 41.9 44.25 43.35 44 43.85 43.8 44.3 43.45 45.15 42.9 45.7 41.9 46.6 40.2 46.75 40.15 46.75 40.1 46.7 39.4 46.3 38.95 45.7 37.9 44.35 37.95 41.85 37.9 41.85 37.9 41.8 37.85 40.65 37.85 39.45 37.9 39.45 37.95 39.45 37.95 39.35 37.95 39.3 37.9 39.3 37.85 39.25 36.45 38.5 35.15 37.6 35.35 39.05 35.3 40.7 35.3 40.75 35.3 40.85 35.55 41.3 35.45 42.1 35.45 42.2 35.45 42.25 35.45 42.3 35.45 42.4 35.55 43.2 35.3 43.65 35.3 43.75 35.3 43.8 35.25 44.8 35.15 45.7 35 46.85 34.75 47.9
L 34.65 47.9
Q 34.15 48.65 33.35 49 33.25 49 33.2 49 32.55 49 31.95 49 31.95 48.95 31.9 48.9 29.95 47.55 28.5 45.7 26.75 43.5 25.75 40.55 25.45 40.65 25.2 40.65 24.9 40.65 24.8 40.45 24.1 39.35 24.05 37.6 24.05 38.3 24.05 39 24 39 24 39.05 23.7 40.3 22.95 41
L 22.95 41.05
Q 20.9 40.05 19.15 38.75 19.05 38.75 19 38.75 19 38.8 19 38.85 18.85 40.15 17.6 40.3 17.6 40.35 17.6 40.4 22.6 42.15 25.85 45.7 28.6 48.75 30.1 53.1 30.6 54.55 30.65 56.45 30.9 57.4 30.75 58.7
L 30.65 58.7
Q 30.65 58.75 30.65 58.85 30 65.1 27.45 69.4 27.45 69.45 27.45 69.55 28.85 70 30.95 70 36.55 69.9 41.8 69.65 39.4 66.9 38.7 62.5
L 38.6 62.5
Q 38.55 61.5 38.55 60.55 38.6 60.55 38.7 60.55 38.7 60.45 38.7 60.4 38.7 60.05 38.7 59.7 40.85 52.45 47 49.05 47.45 48.85 47.95 48.55 50.15 47.2 52.3 45.7 54.95 43.8 57.4 41.7 58.15 41.05 58.65 40.2 59.15 39.3 59.65 38.45 59.55 38.45 59.5 38.4 58.7 37.85 57.95 37.2 57.95 37.25 57.9 37.3 56 40.75 52.45 42.55 52.4 42.55 52.3 42.55 51.7 42.55 51.05 42.55 51.05 42.45 51 42.45 50 42 49.65 41 Z"/>

<path fill="#7FB239" fill-opacity="0.996078431372549" stroke="none" d="
M 42.75 34.65
L 42.75 34.6
Q 43.45 34.35 43.8 33.8 43.9 33.55 44 33.25 44 33.2 44 33.1 42.85 28.5 37.15 28.45 37.15 28.55 37.1 28.55 33.5 30.05 30.4 28.05 30.3 28.05 30.25 28.05 29.25 28.05 28.25 28.05 26.45 28.95 24.55 29.65 24.15 29.8 23.95 29.8 20.85 29.15 18.7 30.3 18.7 30.35 18.7 30.45 18.35 31.35 18.3 32.55 18.3 32.6 18.25 32.65 17.55 33.15 17 33.8 16.8 34 16.6 34.25 16.5 35.65 16.7 36.75 16.75 36.85 16.75 36.9 17.55 37.15 18.5 37.95 18.65 38.05 18.8 38.1 19.1 38.2 19 38.75 19.05 38.75 19.15 38.75 19.15 38.65 19.15 38.6 19.15 38.3 19.15 38.05 19.55 38.05 19.95 38.05 20.05 38.05 20.1 38.05 20.1 37.95 20.1 37.9 19.9 37.9 19.9 37.85 19.8 37.6 19.95 37.35 21.45 34.95 25.05 34.65
L 25.05 34.75
Q 25.45 34.95 25.9 35.1 25.9 35.15 25.9 35.2 26.5 36.5 27.85 37.05 27.9 37.05 27.95 37 29.15 36.15 29.8 34.8 29.9 34.8 29.95 34.75 30.45 34.5 30.95 34.25 31.35 34.25 31.8 34.2 33 34.15 33.85 34.5 35.5 35.2 37.4 35.8 37.5 35.8 37.55 35.75 38.2 35.4 37.4 34.4
L 37.4 34.15
Q 39.85 34.55 42.75 34.65 Z"/>

<path fill="#8BC53D" stroke="none" d="
M 63.55 11.6
Q 63.5 11.6 63.45 11.6 62.5 11.7 61.9 11.45 61.6 10.5 61.5 9.5 61.2 6.35 59.5 4.7 59.4 4.7 59.35 4.7 57.1 4.2 55.4 3.15 55.35 3.15 55.3 3.2 54.6 3.6 53.85 4 53.8 4 53.7 4 53.05 3.9 52.6 3.6 52.55 3.6 52.45 3.6 50.5 3.55 49.65 4.7 49.55 4.7 49.55 4.65 49.1 3.8 48.1 3.45 48.05 3.45 47.95 3.45 46.65 3.45 45.45 3.6 45.35 3.6 45.3 3.6 44.25 3.6 43.2 3.6 42.15 3.35 41.1 3.1 37.35 2.15 36 4.85 36 4.9 36 5 36.1 6.05 35.85 6.8
L 35.85 6.9
Q 33.8 7.75 32.9 9.75 32.85 9.75 32.8 9.75 31.55 9.05 31.5 7.25 31.5 7.15 31.55 7.15 33.8 6.3 34.05 3.45 33.4 2.85 32.6 2.4 30.5 1.15 27.55 1.35 27.55 1.4 27.55 1.45 27 2.25 26.45 3 26.35 3 26.3 3 25.45 3.1 24.9 3.45
L 24.8 3.45
Q 24.3 4.4 23.9 5.4 23.85 5.4 23.8 5.45 22.75 5.9 21.95 6.55 21.95 6.6 21.9 6.65 21.7 7.3 21.95 7.95 22 7.95 22.05 7.95 23.25 9.1 25.6 8.35 25.65 8.35 25.75 8.4 26.5 8.65 26.15 9.35 25.95 9.95 25.2 9.9 24.35 9.9 23.65 10 21.65 10.4 19.25 10.6 19.25 10.55 19.25 10.5 18.45 9.9 17.45 9.5 17.35 9.5 17.3 9.5 16.05 10.2 15.2 11.3 15.1 11.3 15.05 11.3 13.6 11.45 12.65 12 12.6 12 12.6 12.05 12.4 12.9 12.25 13.7 11.6 14.6 10.5 15 7.2 16.2 5.5 18.9 5.5 19 5.5 19.05 5.55 21.1 6.05 22.7 6.05 22.75 6.05 22.8 4.35 23.2 3.8 24.65 3.8 24.95 3.8 25.25 3.8 25.3 3.8 25.4 4.1 25.8 4.5 26.05 4.55 26.1 4.65 26.1 5.15 26.3 6.05 26.15
L 6.05 26.1
Q 7.85 25.85 7.95 27.35
L 8 27.35
Q 8.65 27.35 9.3 27.35 9.35 27.35 9.45 27.35 9.9 27.6 10.7 27.5 10.75 27.5 10.85 27.5 10.95 28.85 12.25 28.1 12.3 28.05 12.4 28.05 13.35 28.05 14.35 28
L 14.35 27.9
Q 14.8 27.95 15 27.75 16.25 26.4 18.3 26.5 18.35 26.55 18.35 26.6 17.35 28.35 14.8 29.35 14.4 29.5 14.05 29.55 10.2 30.05 10.25 33.55
L 10.35 33.55
Q 9.5 33.75 8.45 33.8 8.35 33.8 8.3 33.8 8.3 34.5 8.35 35.2
L 8.45 35.2
Q 8.5 36.5 9.95 36.6 10.5 36.65 10.85 37 11 37.15 11.25 37.2 11.4 38.55 11.95 39.45 12.65 40.55 14.05 40.95 14.15 41 14.2 41 14.85 41 15.45 41 15.55 41 15.6 41 16.7 40.9 17.45 40.45 17.5 40.4 17.6 40.4 17.6 40.35 17.6 40.3 18.85 40.15 19 38.85 19 38.8 19 38.75 19.1 38.2 18.8 38.1 18.65 38.05 18.5 37.95 17.55 37.15 16.75 36.9 16.75 36.85 16.7 36.75 16.5 35.65 16.6 34.25 16.8 34 17 33.8 17.55 33.15 18.25 32.65 18.3 32.6 18.3 32.55 18.35 31.35 18.7 30.45 18.7 30.35 18.7 30.3 20.85 29.15 23.95 29.8 24.15 29.8 24.55 29.65 26.45 28.95 28.25 28.05 29.25 28.05 30.25 28.05 30.3 28.05 30.4 28.05 33.5 30.05 37.1 28.55 37.15 28.55 37.15 28.45 42.85 28.5 44 33.1 44 33.2 44 33.25 43.9 33.55 43.8 33.8 43.45 34.35 42.75 34.6
L 42.75 34.65
Q 39.85 34.55 37.4 34.15
L 37.4 34.4
Q 38.2 35.4 37.55 35.75 37.5 35.8 37.4 35.8 35.5 35.2 33.85 34.5 33 34.15 31.8 34.2 31.35 34.25 30.95 34.25 30.45 34.5 29.95 34.75 29.9 34.8 29.8 34.8 29.15 36.15 27.95 37 27.9 37.05 27.85 37.05 26.5 36.5 25.9 35.2 25.9 35.15 25.9 35.1 25.45 34.95 25.05 34.75
L 25.05 34.65
Q 21.45 34.95 19.95 37.35 19.8 37.6 19.9 37.85 19.9 37.9 20.1 37.9 21.35 38.15 21.7 37.5 21.75 37.45 21.8 37.45 21.8 37.4 21.8 37.35 23 36 24 37.35 24.05 37.4 24.05 37.45 24.05 37.55 24.05 37.6 24.1 39.35 24.8 40.45 24.9 40.65 25.2 40.65 25.45 40.65 25.75 40.55 25.75 40.5 25.75 40.4 26.7 39.7 27.95 39.25 28 39.25 28 39.15 29.1 39.1 29.85 39.4 29.9 39.45 29.95 39.45 29.95 38.6 29.95 37.75 29.95 37.7 29.95 37.6 29.95 37.55 29.95 37.45 30.8 37.45 31.65 37.45 31.7 37.45 31.8 37.45 31.8 37.4 31.8 37.35
L 31.8 37.3
Q 31.8 36.55 31.8 35.9 32.15 35.9 32.45 36 32.5 36 32.5 36.05 34.05 36.5 35.05 37.55 35.1 37.6 35.15 37.6 36.45 38.5 37.85 39.25 37.9 39.3 37.95 39.3 38.1 39.45 38.4 39.45 38.45 39.45 38.55 39.45 39.15 39.45 39.8 39.45 39.85 39.45 39.95 39.45 40.5 39.45 41.05 39.45 41.15 39.45 41.2 39.45 42.7 40.8 45.45 40.3 45.5 40.3 45.55 40.3 47.7 39.4 49.8 38.5 49.85 38.45 49.95 38.45 50.35 38.3 50.75 38.2 50.85 38.15 50.9 38.15 50.9 38.1 50.9 38.05 52.25 38.05 53.6 38.05 53.65 38.05 53.7 38.05 55.35 37.55 56.15 36.25 56.2 36.2 56.25 36.2 57.3 36.45 57.9 37.1 57.95 37.1 57.95 37.2 58.7 37.85 59.5 38.4 59.55 38.45 59.65 38.45 61.05 39.05 63 39.15 63.05 39.15 63.15 39.15 64.2 39.15 65.25 39.15 65.3 39.15 65.4 39.15 67.25 38.95 67.85 37.5 67.85 37.45 67.95 37.45 67.95 36.85 67.95 36.2 67.95 36.15 67.95 36.05 66.9 34.95 67.5 33.8
L 67.5 33.75 67.8 33.65
Q 68.4 33.65 69.05 33.65 69.1 33.65 69.2 33.65 71.2 33.55 70.6 31 70.6 30.95 70.6 30.85 71.05 29.55 72.1 28.85 72.15 28.8 72.15 28.75 72.7 28.65 73.15 28.5 73.2 28.45 73.25 28.45 74.2 28.45 75.1 28.4
L 75.1 28.35
Q 75.55 28.2 75.7 27.8 75.75 27.75 75.8 27.75 75.8 27.7 75.8 27.65 75.8 27.4 75.8 27.2 75.75 27.2 75.7 27.15 75.2 26.6 74.4 26.35 74.4 26.3 74.35 26.3 74 26.1 74.1 25.5 74.2 25.5 74.25 25.5 75.35 24.6 74.7 23.15 74.6 23.15 74.55 23.1 73.1 22.05 71.15 23 71.1 23 71.1 22.95 70.6 20.3 68.35 19.45
L 68.35 19.4
Q 67.7 19.35 68.05 18.9 68.15 18.9 68.2 18.85 69.25 18 68.75 16.25
L 68.75 16.15
Q 68.15 15.55 67.35 15.1 67.3 15.1 67.2 15.1 66.25 15.05 65.7 15.4 65.7 15.3 65.7 15.25 65.75 13.55 65.1 12.6 65.05 12.6 65 12.55 64.4 12 63.55 11.6
M 61.7 13.85
Q 61.75 13.9 61.75 14 60.35 14.45 58.35 14.4 58.3 14.4 58.2 14.4 57.45 16.15 55.6 16.95 55.05 17.2 54 17.1 53.95 17.1 53.85 17.1 53.15 17.1 52.45 17.1 52.4 17.1 52.3 17.1 50.35 17 49.1 16.25
L 49 16.25
Q 49.1 15.15 49.5 14.25 49.3 13.85 48.65 13.75 47.9 13.65 46.9 13.9 42.2 15.3 40.65 11.9 40.65 11.8 40.65 11.75 40.65 11.1 40.65 10.45 41 10 41 9.05
L 41.05 9.05
Q 42.55 7.7 44.65 6.85 45.25 6.6 45.6 6 45.65 5.9 45.7 5.85 49.3 6.6 52.45 7.75 52.55 7.8 52.6 7.8 53.5 6.5 55.55 6.3
L 55.55 6.25
Q 55.2 5.45 56.25 5.65 56.3 5.7 56.4 5.7 60.05 6.9 60.35 11.45 60.35 11.5 60.35 11.6 61.45 12.3 61.7 13.85
M 61.6 20.7
Q 62.15 20.75 62.7 20.75 64.7 22.9 67.4 24.35 68.5 24.95 69.75 24.4 70.45 25.45 70.2 26.8 70.2 26.85 70.2 26.9 69.4 27.85 67.5 27.65 67.45 27.65 67.35 27.65 67.3 27.65 67.2 27.65 66.6 27.6 65.95 27.65 65.9 27.65 65.8 27.6 64.3 27.45 63.45 27.9 63.35 27.9 63.35 27.95 63.05 28.6 63.15 29.6 63.2 29.6 63.25 29.6 64.4 31.7 66.1 33.25 66.1 33.3 66.05 33.35 65.85 33.55 65.65 33.8 64.35 35.2 63.15 36.65 61.3 36.45 60.85 34.8 60.7 34.25 60.6 33.8 60.5 33.45 60.45 33.1 60.4 33.1 60.35 33.15 59.45 33.4 58.7 33.8 58.4 33.95 58.1 34.1 58 34.1 57.95 34.1 57.3 33.9 56.55 33.8 56.45 33.8 56.4 33.85 53.8 34.9 51.45 36.2 51.4 36.2 51.35 36.2 50.1 36.3 49.8 35.5
L 49.7 35.5 49.7 35.4
Q 49.7 35.2 49.7 35.05 49.7 34.5 49.8 33.8 49.85 33.35 49.95 32.85 49.45 32.15 48.65 31.7 46.5 30.45 44.6 29.05
L 44.5 29.05
Q 44.5 27.75 44.6 26.5 44.5 26.5 44.5 26.45 43.9 25.35 42.9 24.65 43.75 24.25 44.2 23.5 44.75 22.65 45.65 22.05 47.1 21.15 49.5 21.15 50.3 21.65 51.2 22 51.25 22 51.35 22 53.1 21.25 54.7 20.25
L 54.7 20.15
Q 57.7 20.4 60.5 20.65 60.95 20.7 61.6 20.7
M 20.8 15.05
L 20.8 15.1
Q 23.5 12 28.95 12.65 29.75 12.75 30.65 13.05 32.15 13.45 33.75 13 36.4 14.4 37.95 16.95 37.95 17 37.95 17.1 36.95 18.1 36.2 19.35
L 36.3 19.35
Q 36.75 19.9 37.4 19.95
L 37.4 20.15
Q 37 20.95 36.15 21.35
L 36.15 21.45
Q 31.95 21.4 30.2 23.8 29.55 24.6 28.4 24.95 26.9 23.65 25.65 22.1 25.6 22.05 25.6 22 24.9 22 24.2 22 24.1 22 24.05 22 22.2 23.25 20.15 24.3 20.1 24.3 20.1 24.4 19.25 24.4 18.45 24.4 18.35 24.4 18.3 24.4 16.25 23 14.1 21.75 13.5 21.4 12.8 21.25 12.4 21.2 12.5 20.75 12.95 18.15 14.1 16.25 14.15 16.25 14.2 16.25 15.6 16.1 17.3 16.3
L 17.3 16.25
Q 17.25 15.05 18.1 14.75 18.15 14.75 18.15 14.7 19.55 14.45 20.8 15.05 Z"/>

<path fill="#7FB239" stroke="none" d="
M 20.8 15.1
L 20.8 15.05
Q 19.55 14.45 18.15 14.7 18.15 14.75 18.1 14.75 17.25 15.05 17.3 16.25
L 17.3 16.3
Q 15.6 16.1 14.2 16.25 14.15 16.25 14.1 16.25 12.95 18.15 12.5 20.75 12.4 21.2 12.8 21.25 13.5 21.4 14.1 21.75 16.25 23 18.3 24.4 18.35 24.4 18.45 24.4 19.25 24.4 20.1 24.4 20.1 24.3 20.15 24.3 22.2 23.25 24.05 22 24.1 22 24.2 22 24.9 22 25.6 22 25.6 22.05 25.65 22.1 26.9 23.65 28.4 24.95 29.55 24.6 30.2 23.8 31.95 21.4 36.15 21.45
L 36.15 21.35
Q 37 20.95 37.4 20.15
L 37.4 19.95
Q 36.75 19.9 36.3 19.35
L 36.2 19.35
Q 36.95 18.1 37.95 17.1 37.95 17 37.95 16.95 36.4 14.4 33.75 13 32.15 13.45 30.65 13.05 29.75 12.75 28.95 12.65 23.5 12 20.8 15.1
M 62.7 20.75
Q 62.15 20.75 61.6 20.7 60.95 20.7 60.5 20.65 57.7 20.4 54.7 20.15
L 54.7 20.25
Q 53.1 21.25 51.35 22 51.25 22 51.2 22 50.3 21.65 49.5 21.15 47.1 21.15 45.65 22.05 44.75 22.65 44.2 23.5 43.75 24.25 42.9 24.65 43.9 25.35 44.5 26.45 44.5 26.5 44.6 26.5 44.5 27.75 44.5 29.05
L 44.6 29.05
Q 46.5 30.45 48.65 31.7 49.45 32.15 49.95 32.85 49.85 33.35 49.8 33.8 49.7 34.5 49.7 35.05 49.7 35.2 49.7 35.4
L 49.7 35.5 49.8 35.5
Q 50.1 36.3 51.35 36.2 51.4 36.2 51.45 36.2 53.8 34.9 56.4 33.85 56.45 33.8 56.55 33.8 57.3 33.9 57.95 34.1 58 34.1 58.1 34.1 58.4 33.95 58.7 33.8 59.45 33.4 60.35 33.15 60.4 33.1 60.45 33.1 60.5 33.45 60.6 33.8 60.7 34.25 60.85 34.8 61.3 36.45 63.15 36.65 64.35 35.2 65.65 33.8 65.85 33.55 66.05 33.35 66.1 33.3 66.1 33.25 64.4 31.7 63.25 29.6 63.2 29.6 63.15 29.6 63.05 28.6 63.35 27.95 63.35 27.9 63.45 27.9 64.3 27.45 65.8 27.6 65.9 27.65 65.95 27.65 66.6 27.6 67.2 27.65 67.3 27.65 67.35 27.65 67.45 27.65 67.5 27.65 69.4 27.85 70.2 26.9 70.2 26.85 70.2 26.8 70.45 25.45 69.75 24.4 68.5 24.95 67.4 24.35 64.7 22.9 62.7 20.75
M 61.75 14
Q 61.75 13.9 61.7 13.85 61.45 12.3 60.35 11.6 60.35 11.5 60.35 11.45 60.05 6.9 56.4 5.7 56.3 5.7 56.25 5.65 55.2 5.45 55.55 6.25
L 55.55 6.3
Q 53.5 6.5 52.6 7.8 52.55 7.8 52.45 7.75 49.3 6.6 45.7 5.85 45.65 5.9 45.6 6 45.25 6.6 44.65 6.85 42.55 7.7 41.05 9.05
L 41 9.05
Q 41 10 40.65 10.45 40.65 11.1 40.65 11.75 40.65 11.8 40.65 11.9 42.2 15.3 46.9 13.9 47.9 13.65 48.65 13.75 49.3 13.85 49.5 14.25 49.1 15.15 49 16.25
L 49.1 16.25
Q 50.35 17 52.3 17.1 52.4 17.1 52.45 17.1 53.15 17.1 53.85 17.1 53.95 17.1 54 17.1 55.05 17.2 55.6 16.95 57.45 16.15 58.2 14.4 58.3 14.4 58.35 14.4 60.35 14.45 61.75 14 Z"/>
</g>
</defs>

<g transform="matrix( 1, 0, 0, 1, 0,0) ">
<use xlink:href="#Layer0_0_FILL"/>
</g>
</svg>
