
<svg xmlns="http://www.w3.org/2000/svg" version="1.1" xmlns:xlink="http://www.w3.org/1999/xlink" preserveAspectRatio="none" x="0px" y="0px" width="80px" height="70px" viewBox="0 0 80 70">
<defs>
<g id="Layer0_0_FILL">
<path fill="#4C412B" stroke="none" d="
M 64.45 23.7
Q 64.3 23.8 64.2 23.85 64 24 63.65 24.15 63.5 24.25 63.1 24.35 62.5 24.65 61.9 24.9 61.55 25 60.95 25.25 60.35 25.5 60.05 25.6 59.55 25.8 59.05 26.05 59 26 58.9 26.05 58.85 26.1 58.7 26.2 58.65 26.25 58.55 26.25 58.45 26.3 58.45 26.25 57.65 26.55 57.2 26.85 56.5 27.3 56.25 27.8 56.2 27.9 56.2 27.95 56.15 27.95 56 28
L 55.05 28.1
Q 54.4 28.25 53.6 28.35 53.4 28.35 52.15 28.5 51.25 28.6 50.65 28.65 50.6 28.7 50.4 28.7 50.2 28.65 50.1 28.7 49.9 28.7 49.5 28.85 48.5 29.05 48.5 28.95 47.45 29.1 46.75 29.25 45.75 29.5 45.05 29.8 44.75 29.95 44.15 30.25 44 30.4 43.95 30.25 43.75 30.3 43.65 30.35 43.5 30.4 43.25 30.6 43.2 30.6 42.9 30.8 42.6 31 42.5 31.05 42.3 31.15 42.25 31.15 42.15 31.2 42.1 31.15
L 42.1 31.1
Q 42.1 31.05 42.05 31.05 41 31.65 39.85 32.35 40.7 29.85 41.9 27.25 43 24.9 44.45 22.3 44.25 22.45 44.3 22 44.35 21.5 44.35 21.45 44.35 21.15 44.05 21.55 43.9 21.75 43.8 21.95 43.75 22.05 43.45 22.65 43.25 23.1 43.1 23.3 42.95 23.6 42.65 23.9 42.55 24.1 42.25 24.4 41.65 24.95 41.2 25.25 40.55 25.65 39.85 25.6 39.75 25.6 39.65 25.6 39.55 25.65 39.5 25.8 39.35 25.95 39.15 26.4 38.9 26.9 38.6 27.65 38.45 27.3 38 27.6 37.75 27.7 37.4 28.1 37.2 24.5 36.85 21.25 36.75 21.45 36.7 21.3 36.65 21.2 36.45 21 36.3 20.7 36.25 20.6 36.1 20.5 36.1 20.65 36 20.8 36.05 21.15 36.1 21.3 36.15 21.6 36.25 22.2 36.25 22.35 36.35 22.7 36.35 23.05 36.35 23.4 36.25 23.8 36.2 24.15 36.05 24.55 35.9 25.2 35.6 25.6 35.4 25.95 35.05 26.2 35 26.25 34.85 26.35 34.6 26.45 34.55 26.45 34.45 26.55 34.45 26.95 34.45 27.05 34.45 27.35 34.5 27.75 34.5 28.65 34.25 28.5 34.05 28.65 33.9 28.85 33.75 29.1 33.05 28.65 32.1 28.3 31.5 28.05 30.35 27.65 28.65 27.15 26.95 26.15 26.95 26.1 27.05 26.1 27.2 26.1 27.25 26.05 27.25 25.95 27.15 25.9 27.1 25.85 26.95 25.7 27.05 25.75 27.15 25.75 27 25.45 26.85 25.1 26.7 24.9 26.4 24.55 26.1 24.2 25.9 23.9 25.75 23.6 25.6 23.25 25.5 22.9 25.45 22.5 25.45 22.15 25.5 21.7 25.5 21.25 25.7 20.8 25.8 20.7 25.8 20.6 25.85 20.5 25.85 20.45 25.85 20.4 25.85 20.35
L 25.8 20.3
Q 25.75 20.35 25.7 20.45
L 25.65 20.55
Q 25.5 20.7 25.45 20.75 25.35 20.8 25.15 20.8 25.1 20.85 25.05 21.05 24.95 21 24.8 21.1 24.8 21.15 24.65 21.25 24.55 21.3 24.5 21.45 24.5 21.5 24.5 21.65 24.5 21.85 24.45 22.2 24.35 22.55 24.35 22.75 24.35 23.2 24.45 23.75 24.55 24.25 24.8 24.6 23.35 23.45 21.45 21.5 21.15 21.2 19.9 19.85 18.9 18.9 18.3 18.25 18.35 18.4 18.15 18.3 17.85 18.2 17.85 18.25 17.85 18.4 18.2 18.65 18.55 18.95 18.6 19 18.85 19.4 18.85 19.65 19 20.05 18.85 20.35
L 18.85 20.5
Q 18.85 20.6 18.95 20.75 19.1 20.9 19.4 21.15 19.2 21.2 19.2 21.4 19.2 21.5 19.35 21.8 19.45 22.1 19.45 22.2 19.5 22.4 19.4 22.5 19.45 22.5 20.05 23.1 20.5 23.45 20.7 23.75 20.85 23.9 21.25 24.45 21.6 24.9 21.8 25.2 21.55 25.05 21 24.75 20.5 24.5 20.15 24.3 19.55 24.1 19.1 24 18.85 23.9 18.55 23.9 18.6 23.95 18.5 23.95 18.45 24 18.5 24.05 18.5 24.1 18.6 24.1 18.8 24.1 18.85 24.1 19 24.25 19.05 24.35 19.1 24.45 19.15 24.55 19.2 24.6 19.35 24.65 19.25 24.75 19.35 24.85
L 19.45 25.05
Q 19.45 25.15 19.55 25.2 19.75 25.25 19.85 25.25 19.9 25.3 20.05 25.35 20.25 25.55 20.25 25.6 20.3 25.6 20.75 25.95 21 26.15 21.1 26.25 21.35 26.45 21.55 26.5 21.6 26.5 21.65 26.6 21.8 26.65 21.9 26.7 22 26.8 22.1 26.8 22.15 26.85 22.35 26.9 22.35 26.95 22.5 26.95 22.65 26.95 22.6 27.05 22.95 27.25 23.4 27.4 23.6 27.5 23.65 27.5 23.75 27.5 23.8 27.5 23.95 27.5 24 27.5 24.1 27.5 24 27.45 24.2 27.5 24.55 27.85 24.9 28.2 25.15 28.3 25.25 28.35 25.25 28.4 25.3 28.4 25.35 28.55 25.45 28.6 25.7 28.7 26 28.9 26.05 28.9 26.35 29.05 26.25 29.1 26.85 29.45 27.1 29.65 27.6 29.9 28 30
L 28.6 30.1
Q 28.7 30.15 28.7 30.2 28.7 30.25 28.8 30.3 28.95 30.35 29 30.35 29.1 30.35 29.3 30.4 29.45 30.4 29.6 30.45 29.7 30.5 29.7 30.55 29.75 30.6 29.7 30.7 30.7 31.05 31.8 31.3
L 32.35 31.4
Q 32.5 31.45 32.55 31.5 32.55 31.55 32.6 31.75
L 32.7 32.7
Q 32.8 33.85 32.75 34.7 32.75 35.75 32.5 36.65 32.4 37.35 32.35 37.75 32.2 38.35 32.15 38.85 32.1 39.3 31.85 40.9 31.8 41.65 31.55 42.85 31.25 44.3 31.15 44.75 30.3 44.15 29.3 43.7 29 43.6 28.4 43.4 28.3 43.4 28.15 43.3 28.1 43.25 28 43.05 27.75 42.6 27.6 42.1 27.5 41.75 27.3 41.05 27.3 40.9 27.25 40.85 27.25 40.7 27.15 40.65 27.05 40.6 27.1 40.7 27.1 40.8 27.1 40.85 27.1 40.95 26.9 41.05 26.75 41.15 26.8 41.3 26.7 41.3 26.6 41.4 26.5 41.5 26.5 41.55 26.45 41.6 26.45 41.7 26.5 41.75 26.55 41.9 26.55 42.1 26.55 42.55 26.55 42.85 26.6 43.1 26.2 43.1 25.6 43 25.05 43 23.95 42.95 23.05 42.85 22.35 42.75 20.5 42.55 19.2 41.9 19 41.8 18.5 41.6 18.15 41.4 17.95 41.2 17.4 40.45 17.1 39.95 16.25 38.75 16.05 37.25 15.7 35.3 16.45 33.1 17.2 31.25 18.65 29.5 18.6 29.55 18.65 29.35
L 18.7 29.25 18.3 29.65
Q 17.8 30.15 17.8 30.2 17.7 30.2 17.5 30.25 17.35 30.3 17.3 30.35 17.25 30.4 17.15 30.55 17.1 30.7 17 30.75 17 30.7 16.75 30.8 16.75 30.85 16.6 31.05 16.55 31.05 16.4 31.15 16.3 31.2 16.25 31.3 16.1 31.55 15.8 32.2 15.75 32.4 15.6 32.75 15.35 33.1 15.3 33.35 15.05 34 14.9 34.7 14.65 35.65 14.65 36.65 14.65 37.7 14.95 38.55 12.95 36.65 11.8 33.75 10.8 31.3 10.15 28.1 10.15 28.25 9.95 28
L 9.75 27.65
Q 9.7 27.65 9.75 27.95 9.75 28.1 9.75 28.3 9.9 28.95 9.95 29.35 10 29.85 9.95 30.35 9.9 30.75 9.8 31.05 9.7 31.45 9.4 31.7 9.2 31.8 9.4 32.4 9.5 32.75 9.75 33.2 9.45 33.05 9.4 33.45 9.4 33.65 9.4 34.05 9.4 34.15 9.4 34.65 9.4 35.1 9.2 35.15 9.45 35.8 10.1 36.8 10.8 37.95 11.05 38.45 11.35 39.1 11.5 39.3 11.75 39.8 11.95 40.1 12.05 40.2 12.35 40.55 12.55 40.8 12.6 40.95
L 12.55 41
Q 12.601171875 40.951171875 12.8 41.15 12.95 41.4 12.95 41.5 13.2 41.7 13.25 41.75 15.1 43.7 17 44.95 17.65 45.3 18.3 45.65 18.55 45.8 18.85 45.9 19.15 46 19.55 46.05 19.55 46.3 19.95 46.35 20.5 46.4 20.6 46.4 20.95 46.45 21.2 46.5 21.65 46.55 21.65 46.7 20.5 46.7 19.1 46.4 18.15 46.25 16.6 45.8
L 16.55 45.8 16.4 45.85
Q 16.4 45.9 16.55 45.95
L 16.75 46
Q 16.9 46 17.1 46.25 17.1 46.3 17.15 46.35 17.2 46.55 17.25 46.55 17.25 46.6 17.35 46.65 17.4 46.65 17.55 46.7 17.45 46.75 17.65 46.9 17.8 47.05 17.8 47.15 17.9 47.2 18.15 47.2 18.35 47.25 18.4 47.3 18.55 47.3 18.8 47.4 19 47.45 19.1 47.5 19.45 47.6 19.8 47.7 21.1 48 22.1 48 22.4 48 22.8 47.9 22.8 47.95 23.05 47.95 23.2 47.85 23.25 47.85 23.35 47.85 23.25 47.9 23.2 47.95 23.4 47.9
L 23.75 47.85
Q 23.85 47.8 24.25 47.7 24.45 47.7 24.8 47.55 24.9 47.55 24.95 47.55 25.05 47.5 25.15 47.45 25.25 47.4 25.35 47.35 25.5 47.2 25.35 47.25
L 25.4 47.2
Q 25.45 47.2 25.45 47.15
L 25.35 47.2 25.35 47.15
Q 25.348828125 47.2 25.3 47.2
L 25.15 47.25
Q 25.35 47.1 25.2 47.1 25.1 47.05 24.95 47.1
L 25 47.05 25.05 47.05
Q 25.8 47 26.1 47 26.1 47.05 26.15 47.1 26.2 47.15 26.3 47.15 26.45 47.2 26.6 47.2 26.85 47.15 26.95 47.15 27.15 47.15 27.25 47.2 27.4 47.2 27.45 47.25 27.55 47.3 27.55 47.35 27.6 47.35 27.55 47.4
L 27.5 47.45
Q 28.35 47.75 29.05 48.4 29.7 48.95 30.2 49.75 30.4 50 30.4 50.1 30.5 50.3 30.5 50.5 30.5 50.65 30.5 50.9 30.45 50.9 30.4 50.95 30.3 51.05 30.25 51.15 30.25 51.3 30.25 51.5 30.25 51.7 30.25 52.15 30.25 52.45 30.25 52.8
L 30.25 52.95
Q 30.25 53.15 30.2 53.25 30.2 53.6 30 53.5 29.7 55.55 29.7 56.2
L 29.6 57.3
Q 29.55 57.6 29.6 57.9 29.65 58.15 29.65 58.55 29.7 58.85 29.7 59.25 29.7 59.3 29.7 59.5 29.7 59.55 29.7 59.6
L 29.5 59.6
Q 29.4 59.85 29.4 60.2 29.4 60.4 29.45 60.75 29.55 61.15 29.55 61.3 29.55 61.6 29.55 61.85 29.5 62 29.5 62.05 29.45 62.25 29.35 62.25 29.3 62.25 29.2 62.2 29.15 62.15 29.1 62.15 29 63.5 28.95 64.05 28.75 65.05 28.55 65.75 28.4 66.25 28.2 66.6 28 67 27.7 67.3 27.5 67.55 27.1 67.8 27 67.8 26.95 67.9 26.9 67.95 26.9 68.15 26.7 68.4 26.4 68.75 26.4970703125 68.7984375 26.55 68.8 26.44921875 68.8 26.4 68.8 26.25 68.8 26.2 68.9 26.3 68.95 26.4 68.95 26.496875 68.9984375 26.55 69
L 26.2 69
Q 26.35 69.1 26.55 69.1 26.85 69 26.95 69 26.7 69.15 26.6 69.35 26.5 69.55 26.85 69.7 27 69.85 27.35 69.85 27.6 69.85 27.85 69.75 27.75 69.8 27.55 69.85 27.4 69.85 27.3 69.95
L 27.25 70 27.7 70
Q 27.85 69.9 28 69.8 28.3 69.5 28.5 69.5 28.6 69.65 27.95 70
L 33.7 70
Q 33.95 69.75 34.15 69.45 34.25 69.75 34.4 70
L 40.55 70 40.55 69.95
Q 40.551171875 70 40.6 70
L 41.25 70
Q 41.15 69.7 41.05 69.3 40.85 68.35 40.8 68.25 40.35 66.75 39.9 65.45 39.4 64 39.1 62.8 38.65 61.35 38.25 60.15 38.2 59.8 38.1 59.5 37.65 57.35 37.3 54.85 37.1 53.2 37.05 51.95 36.9 50.4 37 49.05 37.05 49.2 37.05 49.55 37.4 48.4 38.1 46.85 38.5 45.7 39.25 44.75 39.95 43.85 41.05 43.15 42.05 42.55 43.3 42.2 43.7 42.05 44.2 42 44.5 41.9 44.95 41.9 45.1 41.9 45.2 41.9 45.25 41.9 45.4 41.95 45.8 42.15 46.6 42.4 47.45 42.7 47.8 42.85 48.85 43.3 50.25 44 51.85 44.85 52.7 45.3 52.65 45.25 52.75 45.25
L 52.8 45.25 52.55 45.05
Q 52.25 44.85 52.25 44.75 52.1 44.65 52.2 44.4 52.2 44.35 52.05 44.3
L 51.85 44.2
Q 51.95 44.2 51.8 43.95 51.7 43.75 51.7 43.7 51.7 43.6 51.6 43.6 51.45 43.6 51.4 43.55 51.2 43.45 51.15 43.4 51 43.3 50.95 43.25 49.95 42.6 48.85 41.9 50.1 42 51 42.25 51.6 42.4 51.9 42.55 52.4 42.65 52.75 42.95 53 43.3 53.45 44.15 53.85 44.9 54.15 45.3 54.9 46.1 56.1 46.7 56.9 47.05 58.35 47.45 59.4 47.75 60.2 48.15 61.15 48.65 61.9 49.25 61.85 49.1 62.1 49.2 62.4 49.35 62.45 49.35 62.5 49.3 62.25 49.1 62.1 49 62 48.9 61.5 48.5 61.3 48.4 60.9 48.05 60.65 47.75 60.35 47.4 60.15 47.25 59.95 46.85 59.95 46.6 59.95 46.4 59.35 46.25 59.05 46.15 58.6 46 58.7 45.95 58.55 45.75 58.4 45.65 58.05 45.35 57.65 45.05 57.55 44.9 57.3 44.7 57.4 44.6 56.95 44.35 56.6 44.2 56.15 43.95 55.9 43.6 55.6 43.3 55.4 42.7 55.15 42.1 55 41.8 54.6 41 53.85 40.45 53.2 40 52.25 39.7 50.5 39.15 48.15 38.8 46.95 38.65 45.9 38.6 45.7 38.6 45.4 38.65 45.25 38.65 44.85 38.7 44.8 38.55 44.5 38.6 44.35 38.65 44.1 38.7 45.3 38.2 45.9 37.85 46.9 37.45 47.65 37.05 47.6 37.05 47.65 36.95
L 47.7 36.85
Q 47.7 36.8 47.55 36.9 47.5 36.95 47.45 37 47.25 37.1 47.05 37.05 46.85 37 46.8 36.85 46.75 36.8 46.6 36.9 46.5 36.95 46.45 37 46.45 36.9 46.35 36.85 46.3 36.85 46.15 36.85 46.1 36.85 46.05 36.8 46 36.8 45.95 36.8 45.85 36.8 45.75 36.9 45.4 37.1 45 37.15 44.7 37.25 44.25 37.4 44 37.45 43.6 37.55 43.15 37.7 42.95 37.8 42.85 37.85 42.65 37.9 42.55 37.95 42.4 38
L 42.15 38.2 41.9 38.25 41.7 38.4
Q 41.55 38.5 41.55 38.45 41.2 38.6 40.95 38.8 40.55 39.15 40.4 39.25 40.05 39.55 40.05 39.85 39.7 40 39.35 40.25 39.1 40.45 38.7 40.8 38.5 40.95 38.3 41.1 38.25 41.05 38.15 41.05
L 38.05 41.2
Q 37.8 41.35 37.6 41.6 37.9 39.95 38.1 39.15 38.4 37.7 38.6 36.65 38.65 36.5 38.75 36.45 38.8 36.4 38.9 36.3
L 39.25 36.15
Q 39.75 35.9 39.9 35.8 40.25 35.6 41.2 35.05 42.6 34.2 43.85 33.55 44.6 33.15 45.25 32.9 45.95 32.55 46.6 32.4 47.5 32.1 48.2 31.95 48.55 31.85 48.95 31.8 49.2 31.75 49.3 31.7 49.6 31.7 49.7 31.7 50.25 31.8 51 31.9 51.85 31.95 52.3 32 53.75 32.05 55.35 32.45 56.6 32.8 58.15 33.4 59.25 33.8 60.8 34.5
L 60.85 34.5
Q 61 34.5 61.05 34.5 61.05 34.45 60.85 34.4 60.8 34.4 60.65 34.35 60.45 34.2 60.2 34 60.1 33.9 60 33.75
L 60 33.65
Q 60 33.55 59.95 33.5 59.9 33.45 59.75 33.4 59.7 33.4 59.5 33.35 59.65 33.3 59.4 33.05 59.15 32.8 59.15 32.75
L 58.8 32.6
Q 58.7 32.55 58.4 32.45 58.1 32.35 57.65 32.05 56.6 31.7 55.75 31.35 55.05 31.1 54.95 31.1 54.5 30.95 54.2 30.9 56.05 30.55 58.35 30 59.8 29.65 62.5 29.05 65.65 28.3 67.15 27.95 69.85 27.25 71.7 26.55 71.65 26.55 71.9 26.35 72.2 26.1 72.2 26.05 72.05 26 71.7 26.15 71.65 26.25 71.35 26.35 70.8 26.55 70.25 26.65 69.75 26.8 69.2 26.85 68.7 26.85 68.4 26.75 68.15 26.65 68 26.6 67.95 26.5 67.9 26.5
L 67.85 26.45
Q 67.55 26.45 67.1 26.55 66.85 26.6 66.4 26.8 66.5 26.6 66.1 26.55 66.05 26.55 65.6 26.5 65.5 26.5 65 26.5 64.6 26.45 64.6 26.3 64.3 26.4 63.25 26.65 62.5 26.95 61.95 27 61.4 27.15 60.5 27.3 59.4 27.4 59.1 27.5 61.7 26.35 63.25 25.5 65.5 24.3 67.1 22.9 67.05 22.9 67.1 22.85
L 67.1 22.7
Q 67.1 22.65 66.95 22.85 66.85 22.85 66.8 22.95 66.6 23.2 66.25 23.2 66.2 23.25 66.05 23.2 65.85 23.2 65.8 23.2 65.7 23.2 65.65 23.3 65.6 23.35 65.45 23.5 65.45 23.35 65.2 23.4 65.1 23.45 64.95 23.5 64.9 23.5 64.8 23.5 64.75 23.45 64.65 23.55
L 64.45 23.7
M 56.75 27.8
L 56.8 27.8 56.75 27.85
Q 56.75 27.9 56.7 27.9
L 56.75 27.8
M 12.95 40.8
L 12.8 40.9 12.85 40.85
Q 12.9 40.8 12.95 40.8
M 33.7 29.3
Q 33.65 29.35 33.6 29.35 33.55 29.35 33.5 29.35 33.55 29.3 33.7 29.3
M 24.8 47.1
L 24.8 47.05
Q 24.9 47.05 24.95 47.05
L 24.85 47.1 24.8 47.1 Z"/>
</g>
</defs>

<g transform="matrix( 1, 0, 0, 1, 0,0) ">
<use xlink:href="#Layer0_0_FILL"/>
</g>
</svg>
